<svg width="85" height="85" viewBox="0 0 85 85" fill="none" xmlns="http://www.w3.org/2000/svg">
<path d="M77.5426 47.2248C77.2019 46.8834 76.7746 46.6411 76.3066 46.5242C75.8387 46.4072 75.3477 46.4198 74.8863 46.5607C69.8214 48.0919 64.436 48.2203 59.3039 46.9322C54.1718 45.6441 49.4853 42.9878 45.7438 39.2463C42.0023 35.5048 39.346 30.8183 38.0578 25.6861C36.7697 20.554 36.8981 15.1686 38.4293 10.1037C38.5714 9.64219 38.585 9.15066 38.4687 8.68199C38.3523 8.21332 38.1104 7.78523 37.7689 7.44377C37.4275 7.10231 36.9994 6.86039 36.5307 6.74403C36.062 6.62768 35.5705 6.64128 35.109 6.78339C28.1066 8.92846 21.959 13.2274 17.5412 19.0685C13.6778 24.198 11.3211 30.3031 10.7361 36.698C10.1511 43.0929 11.3609 49.5243 14.2296 55.2695C17.0982 61.0148 21.5121 65.8463 26.9753 69.2213C32.4386 72.5963 38.7346 74.381 45.1563 74.375C52.648 74.3981 59.9405 71.9626 65.9149 67.4422C71.756 63.0244 76.055 56.8769 78.2 49.8744C78.3405 49.4146 78.3535 48.9253 78.2377 48.4587C78.122 47.9921 77.8817 47.5656 77.5426 47.2248ZM62.7207 63.1988C57.0946 67.4364 50.1271 69.4991 43.1008 69.0071C36.0746 68.5151 29.4625 65.5016 24.4818 60.5213C19.5011 55.541 16.4871 48.9292 15.9945 41.903C15.502 34.8768 17.5641 27.9091 21.8012 22.2826C24.5617 18.6371 28.1306 15.682 32.227 13.6498C31.9936 15.2875 31.876 16.9395 31.875 18.5937C31.8847 27.749 35.5259 36.5266 41.9997 43.0003C48.4734 49.4741 57.251 53.1153 66.4063 53.125C68.0638 53.1245 69.7192 53.0069 71.3602 52.773C69.3261 56.8701 66.3686 60.4391 62.7207 63.1988Z" fill="#333"/>
</svg>
