<svg width="85" height="85" viewBox="0 0 85 85" fill="none" xmlns="http://www.w3.org/2000/svg">
<path d="M42.5 7.96875C35.6704 7.96875 28.9941 9.99397 23.3155 13.7883C17.6368 17.5827 13.2109 22.9757 10.5973 29.2855C7.98371 35.5952 7.29988 42.5383 8.63227 49.2367C9.96467 55.9351 13.2535 62.088 18.0827 66.9173C22.912 71.7466 29.0649 75.0353 35.7633 76.3677C42.4617 77.7001 49.4048 77.0163 55.7146 74.4027C62.0243 71.7891 67.4174 67.3632 71.2117 61.6845C75.006 56.0059 77.0313 49.3296 77.0313 42.5C77.0216 33.3447 73.3804 24.5672 66.9066 18.0934C60.4328 11.6196 51.6553 7.97842 42.5 7.96875ZM33.7444 55.7812H51.2557C49.4727 61.8707 46.4844 67.3592 42.5 71.6822C38.5156 67.3592 35.5274 61.8707 33.7444 55.7812ZM32.5391 50.4688C31.6581 45.1928 31.6581 39.8072 32.5391 34.5312H52.461C53.3419 39.8072 53.3419 45.1928 52.461 50.4688H32.5391ZM13.2813 42.5C13.279 39.8054 13.6511 37.1235 14.3869 34.5312H27.1569C26.3644 39.8142 26.3644 45.1858 27.1569 50.4688H14.3869C13.6511 47.8765 13.279 45.1946 13.2813 42.5ZM51.2557 29.2188H33.7444C35.5274 23.1293 38.5156 17.6408 42.5 13.3178C46.4844 17.6408 49.4727 23.1293 51.2557 29.2188ZM57.8432 34.5312H70.6131C72.0873 39.7415 72.0873 45.2585 70.6131 50.4688H57.8432C58.6356 45.1858 58.6356 39.8142 57.8432 34.5312ZM68.5213 29.2188H56.7574C55.4019 23.8847 53.1254 18.8283 50.0305 14.2773C53.9845 15.3399 57.6723 17.2182 60.8569 19.7915C64.0414 22.3647 66.6522 25.576 68.5213 29.2188ZM34.9695 14.2773C31.8747 18.8283 29.5982 23.8847 28.2426 29.2188H16.4787C18.3478 25.576 20.9586 22.3647 24.1431 19.7915C27.3277 17.2182 31.0156 15.3399 34.9695 14.2773ZM16.4787 55.7812H28.2426C29.5982 61.1153 31.8747 66.1717 34.9695 70.7227C31.0156 69.6601 27.3277 67.7818 24.1431 65.2085C20.9586 62.6352 18.3478 59.424 16.4787 55.7812ZM50.0305 70.7227C53.1254 66.1717 55.4019 61.1153 56.7574 55.7812H68.5213C66.6522 59.424 64.0414 62.6352 60.8569 65.2085C57.6723 67.7818 53.9845 69.6601 50.0305 70.7227Z" fill="white"/>
</svg>
