<svg width="48" height="47" viewBox="0 0 48 47" fill="none" xmlns="http://www.w3.org/2000/svg">
<path d="M22.4 6.26667V1.56667C22.4 1.15116 22.5686 0.752673 22.8686 0.458866C23.1687 0.165059 23.5757 0 24 0C24.4243 0 24.8313 0.165059 25.1314 0.458866C25.4314 0.752673 25.6 1.15116 25.6 1.56667V6.26667C25.6 6.68217 25.4314 7.08066 25.1314 7.37447C24.8313 7.66827 24.4243 7.83333 24 7.83333C23.5757 7.83333 23.1687 7.66827 22.8686 7.37447C22.5686 7.08066 22.4 6.68217 22.4 6.26667ZM36.8 23.5C36.8 25.9789 36.0493 28.4021 34.6428 30.4631C33.2363 32.5242 31.2372 34.1307 28.8983 35.0793C26.5595 36.0279 23.9858 36.2761 21.5028 35.7925C19.0199 35.3089 16.7391 34.1152 14.949 32.3624C13.1589 30.6096 11.9398 28.3764 11.4459 25.9451C10.9521 23.5139 11.2055 20.9939 12.1743 18.7037C13.1431 16.4135 14.7838 14.4561 16.8887 13.0789C18.9936 11.7017 21.4684 10.9667 24 10.9667C27.3936 10.9703 30.6472 12.2919 33.0469 14.6416C35.4465 16.9913 36.7963 20.1771 36.8 23.5ZM33.6 23.5C33.6 21.6409 33.037 19.8235 31.9821 18.2776C30.9272 16.7318 29.4279 15.527 27.6738 14.8155C25.9196 14.1041 23.9893 13.9179 22.1271 14.2806C20.2649 14.6433 18.5544 15.5386 17.2118 16.8532C15.8692 18.1678 14.9549 19.8427 14.5845 21.6662C14.214 23.4896 14.4042 25.3796 15.1308 27.0972C15.8574 28.8149 17.0878 30.2829 18.6665 31.3158C20.2452 32.3487 22.1013 32.9 24 32.9C26.5453 32.8974 28.9855 31.9062 30.7853 30.1439C32.5851 28.3817 33.5974 25.9922 33.6 23.5ZM10.068 12.0751C10.3682 12.3691 10.7754 12.5342 11.2 12.5342C11.6246 12.5342 12.0318 12.3691 12.332 12.0751C12.6322 11.7811 12.8009 11.3824 12.8009 10.9667C12.8009 10.5509 12.6322 10.1522 12.332 9.85825L9.132 6.72492C8.83177 6.43095 8.42458 6.2658 8 6.2658C7.57542 6.2658 7.16822 6.43095 6.868 6.72492C6.56777 7.01889 6.39911 7.4176 6.39911 7.83333C6.39911 8.24907 6.56777 8.64778 6.868 8.94175L10.068 12.0751ZM10.068 34.9249L6.868 38.0583C6.56777 38.3522 6.39911 38.7509 6.39911 39.1667C6.39911 39.5824 6.56777 39.9811 6.868 40.2751C7.16822 40.5691 7.57542 40.7342 8 40.7342C8.42458 40.7342 8.83177 40.5691 9.132 40.2751L12.332 37.1418C12.4807 36.9962 12.5986 36.8234 12.679 36.6332C12.7595 36.443 12.8009 36.2392 12.8009 36.0333C12.8009 35.8275 12.7595 35.6236 12.679 35.4335C12.5986 35.2433 12.4807 35.0705 12.332 34.9249C12.1833 34.7794 12.0069 34.6639 11.8126 34.5851C11.6184 34.5063 11.4102 34.4658 11.2 34.4658C10.9898 34.4658 10.7816 34.5063 10.5874 34.5851C10.3931 34.6639 10.2167 34.7794 10.068 34.9249ZM36.8 12.5333C37.0102 12.5335 37.2183 12.4931 37.4126 12.4145C37.6068 12.3359 37.7833 12.2205 37.932 12.0751L41.132 8.94175C41.4322 8.64778 41.6009 8.24907 41.6009 7.83333C41.6009 7.4176 41.4322 7.01889 41.132 6.72492C40.8318 6.43095 40.4246 6.2658 40 6.2658C39.5754 6.2658 39.1682 6.43095 38.868 6.72492L35.668 9.85825C35.444 10.0774 35.2914 10.3566 35.2296 10.6607C35.1677 10.9648 35.1994 11.2799 35.3206 11.5664C35.4418 11.8528 35.6471 12.0976 35.9104 12.2697C36.1738 12.4418 36.4834 12.5336 36.8 12.5333ZM37.932 34.9249C37.6318 34.6309 37.2246 34.4658 36.8 34.4658C36.3754 34.4658 35.9682 34.6309 35.668 34.9249C35.3678 35.2189 35.1991 35.6176 35.1991 36.0333C35.1991 36.4491 35.3678 36.8478 35.668 37.1418L38.868 40.2751C39.0167 40.4206 39.1931 40.5361 39.3874 40.6149C39.5816 40.6937 39.7898 40.7342 40 40.7342C40.2102 40.7342 40.4184 40.6937 40.6126 40.6149C40.8069 40.5361 40.9833 40.4206 41.132 40.2751C41.2807 40.1295 41.3986 39.9567 41.479 39.7665C41.5595 39.5764 41.6009 39.3725 41.6009 39.1667C41.6009 38.9608 41.5595 38.757 41.479 38.5668C41.3986 38.3766 41.2807 38.2038 41.132 38.0583L37.932 34.9249ZM8 23.5C8 23.0845 7.83143 22.686 7.53137 22.3922C7.23131 22.0984 6.82435 21.9333 6.4 21.9333H1.6C1.17565 21.9333 0.768687 22.0984 0.468629 22.3922C0.168571 22.686 0 23.0845 0 23.5C0 23.9155 0.168571 24.314 0.468629 24.6078C0.768687 24.9016 1.17565 25.0667 1.6 25.0667H6.4C6.82435 25.0667 7.23131 24.9016 7.53137 24.6078C7.83143 24.314 8 23.9155 8 23.5ZM24 39.1667C23.5757 39.1667 23.1687 39.3317 22.8686 39.6255C22.5686 39.9193 22.4 40.3178 22.4 40.7333V45.4333C22.4 45.8488 22.5686 46.2473 22.8686 46.5411C23.1687 46.8349 23.5757 47 24 47C24.4243 47 24.8313 46.8349 25.1314 46.5411C25.4314 46.2473 25.6 45.8488 25.6 45.4333V40.7333C25.6 40.3178 25.4314 39.9193 25.1314 39.6255C24.8313 39.3317 24.4243 39.1667 24 39.1667ZM46.4 21.9333H41.6C41.1757 21.9333 40.7687 22.0984 40.4686 22.3922C40.1686 22.686 40 23.0845 40 23.5C40 23.9155 40.1686 24.314 40.4686 24.6078C40.7687 24.9016 41.1757 25.0667 41.6 25.0667H46.4C46.8243 25.0667 47.2313 24.9016 47.5314 24.6078C47.8314 24.314 48 23.9155 48 23.5C48 23.0845 47.8314 22.686 47.5314 22.3922C47.2313 22.0984 46.8243 21.9333 46.4 21.9333Z" fill="#B4B4B4"/>
</svg>
