<svg width="67" height="67" viewBox="0 0 67 67" fill="none" xmlns="http://www.w3.org/2000/svg">
<path d="M35.9919 52.9756C36.3634 53.3457 36.6581 53.7856 36.8592 54.2699C37.0603 54.7542 37.1638 55.2734 37.1638 55.7978C37.1638 56.3222 37.0603 56.8415 36.8592 57.3258C36.6581 57.8101 36.3634 58.2499 35.9919 58.6201L34.0197 60.5924C30.2824 64.3296 25.2136 66.4292 19.9283 66.4292C14.643 66.4292 9.57412 64.3296 5.83685 60.5924C2.09958 56.8551 0 51.7863 0 46.501C0 41.2157 2.09958 36.1468 5.83685 32.4096L13.8454 24.4043C17.4363 20.8045 22.2677 18.714 27.3499 18.5609C32.4321 18.4078 37.3806 20.2038 41.1816 23.5808C41.574 23.9297 41.8939 24.3524 42.1229 24.8248C42.352 25.2973 42.4858 25.8102 42.5166 26.3343C42.5474 26.8585 42.4747 27.3836 42.3026 27.8796C42.1305 28.3757 41.8624 28.833 41.5136 29.2254C41.1648 29.6178 40.7421 29.9377 40.2696 30.1668C39.7972 30.3958 39.2843 30.5296 38.7601 30.5604C38.236 30.5912 37.7109 30.5185 37.2148 30.3464C36.7188 30.1743 36.2615 29.9062 35.8691 29.5574C33.5897 27.5331 30.6231 26.4562 27.576 26.5469C24.5289 26.6376 21.6315 27.8892 19.4767 30.0455L11.4747 38.0408C9.23273 40.2828 7.97318 43.3236 7.97318 46.4943C7.97318 49.665 9.23273 52.7058 11.4747 54.9478C13.7168 57.1898 16.7576 58.4494 19.9283 58.4494C23.0989 58.4494 26.1398 57.1898 28.3818 54.9478L30.354 52.9756C30.7241 52.6051 31.1635 52.3112 31.6472 52.1107C32.1309 51.9102 32.6494 51.807 33.173 51.807C33.6966 51.807 34.2151 51.9102 34.6988 52.1107C35.1825 52.3112 35.6219 52.6051 35.9919 52.9756ZM60.5888 5.82714C56.8485 2.09561 51.7808 0 46.4974 0C41.214 0 36.1463 2.09561 32.406 5.82714L30.4337 7.7994C29.6852 8.54791 29.2647 9.56311 29.2647 10.6217C29.2647 11.6802 29.6852 12.6954 30.4337 13.4439C31.1822 14.1924 32.1974 14.613 33.256 14.613C34.3145 14.613 35.3297 14.1924 36.0783 13.4439L38.0505 11.4717C40.2925 9.22966 43.3334 7.97011 46.504 7.97011C49.6747 7.97011 52.7155 9.22966 54.9576 11.4717C57.1996 13.7137 58.4591 16.7545 58.4591 19.9252C58.4591 23.0959 57.1996 26.1367 54.9576 28.3787L46.9523 36.3873C44.7955 38.5427 41.8966 39.7924 38.8487 39.8807C35.8008 39.969 32.8344 38.8891 30.5566 36.8621C30.1642 36.5133 29.7069 36.2452 29.2108 36.0731C28.7148 35.901 28.1897 35.8283 27.6655 35.8591C27.1414 35.8899 26.6285 36.0237 26.156 36.2528C25.6836 36.4818 25.2609 36.8017 24.912 37.1941C24.5632 37.5866 24.2951 38.0438 24.123 38.5399C23.9509 39.0359 23.8782 39.561 23.909 40.0852C23.9399 40.6093 24.0736 41.1222 24.3027 41.5947C24.5318 42.0671 24.8517 42.4898 25.2441 42.8387C29.0425 46.215 33.9876 48.012 39.0674 47.862C44.1472 47.7121 48.9777 45.6264 52.5703 42.0318L60.5788 34.0266C64.3147 30.2871 66.4141 25.2181 66.4159 19.9322C66.4178 14.6464 64.322 9.57583 60.5888 5.83378V5.82714Z" fill="#B4B4B4"/>
</svg>
